<svg id="Grupo_9" data-name="Grupo 9" xmlns="http://www.w3.org/2000/svg" width="750.969" height="499.011" viewBox="0 0 750.969 499.011">
  <circle id="Elipse_47" data-name="Elipse 47" cx="32.427" cy="32.427" r="32.427" transform="translate(429.114 101.667)" fill="#f2f2f2"/>
  <circle id="Elipse_48" data-name="Elipse 48" cx="27.022" cy="27.022" r="27.022" transform="translate(241.76 47.622)" fill="#f2f2f2"/>
  <circle id="Elipse_49" data-name="Elipse 49" cx="27.022" cy="27.022" r="27.022" transform="translate(153.487 303.433)" fill="#f2f2f2"/>
  <path id="Caminho_282" data-name="Caminho 282" d="M353.047,585.87c7.827,9.278,16.294,76.163,25.329,84.252l423.871.9c9.034-8.089,17.5-74.974,25.329-84.252Z" transform="translate(-200.003 -213.981)" fill="#e6e6e6"/>
  <path id="Caminho_283" data-name="Caminho 283" d="M499.737,498.3v92.38h64.718V498.3a3.106,3.106,0,0,0-2.189-2.972,2.861,2.861,0,0,0-.928-.144H502.863a3.12,3.12,0,0,0-3.126,3.117Zm25.257,31.742a6.909,6.909,0,1,1,13.818,0v10.719a6.909,6.909,0,1,1-13.818,0Z" transform="translate(-214.563 -204.98)" fill="#3f3d56"/>
  <path id="Caminho_284" data-name="Caminho 284" d="M386.707,343.234V511.907a8.113,8.113,0,0,0,8.107,8.107H644.77a8.113,8.113,0,0,0,8.107-8.107V343.234a8.117,8.117,0,0,0-8.107-8.1H394.814A8.117,8.117,0,0,0,386.707,343.234Z" transform="translate(-203.344 -189.093)" fill="#3f3d56"/>
  <path id="Caminho_285" data-name="Caminho 285" d="M393.217,345.978V510.471a4.34,4.34,0,0,0,4.333,4.333H643.335a4.34,4.34,0,0,0,4.333-4.333V345.978a4.342,4.342,0,0,0-4.332-4.342H397.55a4.342,4.342,0,0,0-4.332,4.342Z" transform="translate(-203.99 -189.739)" fill="#6c63ff"/>
  <path id="Caminho_286" data-name="Caminho 286" d="M448.79,610.416a2.656,2.656,0,0,0,2.09,1H597.106a2.691,2.691,0,0,0,2.63-3.243l-2.27-10.782a2.7,2.7,0,0,0-1.675-1.955,2.608,2.608,0,0,0-.955-.18h-141.7a2.609,2.609,0,0,0-.955.18,2.7,2.7,0,0,0-1.675,1.955l-2.27,10.782A2.689,2.689,0,0,0,448.79,610.416Z" transform="translate(-209.447 -214.912)" fill="#3f3d56"/>
  <path id="Caminho_287" data-name="Caminho 287" d="M406.7,366.59H636.68a.915.915,0,1,0,0-1.829H406.7a.915.915,0,1,0,0,1.829Z" transform="translate(-205.238 -192.034)" fill="#3f3d56"/>
  <ellipse id="Elipse_50" data-name="Elipse 50" cx="5.36" cy="5.479" rx="5.36" ry="5.479" transform="translate(410.427 157.1)" fill="#3f3d56"/>
  <ellipse id="Elipse_51" data-name="Elipse 51" cx="5.36" cy="5.479" rx="5.36" ry="5.479" transform="translate(391.911 157.1)" fill="#3f3d56"/>
  <ellipse id="Elipse_52" data-name="Elipse 52" cx="5.36" cy="5.479" rx="5.36" ry="5.479" transform="translate(373.396 157.1)" fill="#3f3d56"/>
  <path id="Caminho_288" data-name="Caminho 288" d="M418.089,349.916a.986.986,0,0,0,.982.991h13.151a1,1,0,0,0,0-1.991H419.071a.994.994,0,0,0-.982,1Z" transform="translate(-206.459 -190.461)" fill="#3f3d56"/>
  <path id="Caminho_289" data-name="Caminho 289" d="M418.089,354.066a.986.986,0,0,0,.982.991h13.151a1,1,0,1,0,0-1.991H419.071a.994.994,0,0,0-.982,1Z" transform="translate(-206.459 -190.873)" fill="#3f3d56"/>
  <path id="Caminho_290" data-name="Caminho 290" d="M418.089,358.207a.994.994,0,0,0,.982,1h13.151a1,1,0,0,0,0-1.991H419.071a.986.986,0,0,0-.982.991Z" transform="translate(-206.459 -191.285)" fill="#3f3d56"/>
  <path id="Caminho_291" data-name="Caminho 291" d="M958.67,555.2c-.018-.045-.027-.081-.045-.117a23.991,23.991,0,0,0-1.216-2.738c-2.621-4.927.153-12.493-2.8-20.852-4.774-13.547-10.593-21.537-19.123-28.7-.252-.216-.5-.423-.766-.639l-.009-.009c-5.693-4.675-12.556-9.043-21.077-14.484-1.775-1.135-7.909,2.144-7.764-3.477.162-6.242.333-12.709-2.729-16.745l-.2-.261-.315-.081a135.5,135.5,0,0,0-31.9-2.459h-.009a62.747,62.747,0,0,0-13.448,1.973c-.324.09-.648.18-.964.288-.243.063-.486.144-.73.225l-.2.072-.153.144c-2.963,2.963-3.648,8.278-3.972,13.817v.009q-.094,1.513-.162,3.026c-.252,5.386-13.25,9.737-18.2,12.178-9.3,4.594-7.9,15.3-8.009,15.3,0,0-15.644,32.117-15.833,64.643q-.014,2.716-.036,5.458c-.108,15.151-.4,30.562-1.531,44.6-.5,6.035-1.135,11.809-1.991,17.2-4.162,26.275-23.014,4.459-32.031,21.942a22.092,22.092,0,0,0,1.486,5c1.036.612,2.1,1.207,3.153,1.8q7.012,3.9,14.286,7.287c.27.126.54.252.811.369a213.22,213.22,0,0,0,27.437,10.467c1.828.558,3.657,1.09,5.5,1.594a210.4,210.4,0,0,0,50.09,7.5,1.546,1.546,0,0,1,.207-.009,259.943,259.943,0,0,0,59.3-8.548l.811-.216c1.27-.342,2.531-.685,3.792-1.045A258.771,258.771,0,0,0,973.028,678a8.327,8.327,0,0,0,.117,1.18,2.724,2.724,0,0,0,.054.378c.018-.144.036-.288.045-.432.054-.423.1-.856.144-1.288C978.9,624.084,967.453,578.444,958.67,555.2Z" transform="translate(-241.732 -201.936)" fill="#ccc"/>
  <circle id="Elipse_53" data-name="Elipse 53" cx="52.307" cy="52.307" r="52.307" transform="translate(584.895 153.425)" fill="#816a6a"/>
  <path id="Caminho_292" data-name="Caminho 292" d="M886.054,447.278a142.253,142.253,0,0,0,23.43-6.287c7.479-3.1,22.412-19.26,25.772-27.888h0c2.5-6.41,3.067-15.773,3.107-22.5a63.593,63.593,0,0,0-20.57-47.427,20.091,20.091,0,0,0-9.29-5.247c-.307-.056-.62-.1-.933-.124a24.789,24.789,0,0,1-13.562-5.132A20.446,20.446,0,0,0,891.592,331a30.534,30.534,0,0,0-13.727-3.843c-7.821-.541-18.193,3.529-30.828,12.1-6.348,4.308-14.129,4.712-20.2,4.583a1.942,1.942,0,0,0-1.675.964,13.709,13.709,0,0,1-8.435,5.427c-2.064.5-3.687,3.806-5.6,8.08-.433.97-.938,2.1-1.324,2.806l-.294-1.151-.925,1.528a16.636,16.636,0,0,0,12.554,25.166,32.443,32.443,0,0,0,6.6-.227c1.334-.137,2.713-.28,4.057-.307a25.081,25.081,0,0,1,21.406,12.412,6.559,6.559,0,0,0,10.326,1.233,10.837,10.837,0,0,1,9.349-3.653,7.194,7.194,0,0,1,3.811,2.932,9.375,9.375,0,0,0,4.285,3.394c5.807,1.693,8.519,13.675,8.581,24.091.06,10.041-2.187,17.75-5.463,18.748-2.522.768-2.781,1.008-2.879,1.5l-.087.44.363.325a10.711,10.711,0,0,0,4.56-.271Z" transform="translate(-244.981 -188.296)" fill="#2f2e41"/>
  <ellipse id="Elipse_54" data-name="Elipse 54" cx="18.134" cy="5.787" rx="18.134" ry="5.787" transform="translate(437.813 409.122)" fill="#3f3d56"/>
  <ellipse id="Elipse_55" data-name="Elipse 55" cx="18.134" cy="5.787" rx="18.134" ry="5.787" transform="translate(437.813 405.263)" fill="#3f3d56"/>
  <path id="Caminho_293" data-name="Caminho 293" d="M685.707,619.919l2.7-.04-.746-50.458a47.071,47.071,0,0,1,22.851-40.984l51.576-30.829-1.386-2.32-51.576,30.83a49.78,49.78,0,0,0-24.167,43.343Z" transform="translate(-232.948 -204.99)" fill="#3f3d56"/>
  <rect id="Retângulo_125" data-name="Retângulo 125" width="13.118" height="54.016" rx="6.559" transform="translate(534.363 315.365) rotate(180)" fill="#6c63ff"/>
  <path id="Caminho_294" data-name="Caminho 294" d="M673.811,555.357a15.6,15.6,0,0,0,21.747,9.98l38.9,39.524,6.018-28.181-37.86-33.212a15.689,15.689,0,0,0-28.8,11.889Z" transform="translate(-231.784 -208.974)" fill="#816a6a"/>
  <path id="Caminho_295" data-name="Caminho 295" d="M880.03,510.484l-.247-.138-28.361-9.753a26.849,26.849,0,0,0-21.991,2.042,26.318,26.318,0,0,0-4.315,3.052h-.009a26.845,26.845,0,0,0-8.718,14.776l-14.9,70.724-29.952-16.141-12.205-2.915-11.11-11.149-27.744-11.3-1.54,1.838-13.96,16.686-1.1,1.311,30.738,44.47,13.778,1.5,3.86,6.866.273.125,11.3,5.091L812,649.277l23.328-17.853,3.65-2.8c30.18-27.961,44.288-50.455,50.178-67.586a60.083,60.083,0,0,0,3.629-22.669C891.829,519.58,880.508,510.844,880.03,510.484Z" transform="translate(-234.827 -205.371)" fill="#ccc"/>
  <path id="Caminho_296" data-name="Caminho 296" d="M913.842,530.87H900.33a70.708,70.708,0,0,0-70.708,70.708c-12.6,15.587-11.832,35.159,0,58.026l-38.727-16.146a10.809,10.809,0,0,0-8.318,19.953l47.046,19.613v3.652a20.738,20.738,0,0,0,20.738,20.738H963.811a20.738,20.738,0,0,0,20.738-20.738c8.411-30.857,13.675-60.783,0-85.1a70.708,70.708,0,0,0-70.708-70.708Z" transform="translate(-241.977 -208.522)" fill="#3f3d56"/>
  <circle id="Elipse_56" data-name="Elipse 56" cx="3.603" cy="3.603" r="3.603" transform="translate(344.444 255.694)" fill="#f2f2f2"/>
  <circle id="Elipse_57" data-name="Elipse 57" cx="3.603" cy="3.603" r="3.603" transform="translate(357.055 255.694)" fill="#f2f2f2"/>
  <circle id="Elipse_58" data-name="Elipse 58" cx="3.603" cy="3.603" r="3.603" transform="translate(369.665 255.694)" fill="#f2f2f2"/>
  <path id="Caminho_297" data-name="Caminho 297" d="M468.656,418.607l26.894.4a1.352,1.352,0,0,0,0-2.7l-26.894-.4a1.352,1.352,0,0,0,0,2.7Z" transform="translate(-211.349 -197.11)" fill="#fff"/>
  <path id="Caminho_298" data-name="Caminho 298" d="M504.008,448.981c3.183,2.456,8.3.307,9.186-3.487,1.035-4.421-2.827-8.583-7.209-8.487-4.874.107-8.319,4.206-8.847,8.82a12.818,12.818,0,0,0,4.626,11.147,14.028,14.028,0,0,0,12.842,3,1.352,1.352,0,0,0-.718-2.606,11.455,11.455,0,0,1-13.812-7.737c-.848-3.187-.047-7.167,2.923-8.991,2.67-1.639,6.45-1.044,7.468,2.24a3.317,3.317,0,0,1-5.1,3.768,1.36,1.36,0,0,0-1.849.485,1.384,1.384,0,0,0,.485,1.849Z" transform="translate(-214.3 -199.205)" fill="#fff"/>
  <path id="Caminho_299" data-name="Caminho 299" d="M533.935,436.715a66.824,66.824,0,0,0-7.258,9.8l-3.158-8.347c-.609-1.611-3.223-.913-2.606.718l4.026,10.643a67.27,67.27,0,0,0-4,8.881c-.6,1.636,2.013,2.341,2.606.718a62.945,62.945,0,0,1,2.672-6.216l3.689,9.75c.609,1.611,3.223.913,2.606-.718l-4.615-12.2a63.565,63.565,0,0,1,7.947-11.115C537,437.333,535.1,435.416,533.935,436.715Z" transform="translate(-216.656 -199.133)" fill="#fff"/>
  <path id="Caminho_300" data-name="Caminho 300" d="M482.107,417.3,484,457.8c.081,1.732,2.783,1.741,2.7,0l-1.889-40.5C484.728,415.565,482.026,415.555,482.107,417.3Z" transform="translate(-212.813 -197.119)" fill="#fff"/>
  <path id="Caminho_301" data-name="Caminho 301" d="M554.274,440.274h-6.806c-.017-1.368-.035-2.735-.063-4.1a1.352,1.352,0,0,0-2.7,0q.041,2.05.083,4.1h-5.831a1.352,1.352,0,0,0,0,2.7h5.886q.017.862.035,1.723a69.664,69.664,0,0,0,.341,7.963c.577,4.247,3.456,9.074,8.374,8.657,1.72-.146,1.736-2.849,0-2.7-4.439.376-5.713-4.839-5.88-8.254-.12-2.458-.172-4.922-.207-7.386h6.771a1.352,1.352,0,0,0,0-2.7Z" transform="translate(-218.327 -198.993)" fill="#f2f2f2"/>
  <path id="Caminho_302" data-name="Caminho 302" d="M255.952,558.191a14.612,14.612,0,0,0-2.61.246l-14.323-90.674,14.349-87.291a21.985,21.985,0,0,0-42.679-10.124h0a173.449,173.449,0,0,0-7.89,53.193l.5,59.531L241.484,574.5a14.575,14.575,0,1,0,14.467-16.307Z" transform="translate(-185.089 -191.057)" fill="#816a6a"/>
  <path id="Caminho_303" data-name="Caminho 303" d="M228.876,348.81A34.637,34.637,0,0,0,194.3,383.389l7.026,70.978.631,6.359.324.018,24.671,1.225h.009l11.971.594,2.054.1,2.351-8.3,20.123-70.978A34.617,34.617,0,0,0,228.876,348.81Z" transform="translate(-184.246 -190.451)" fill="#e6e6e6"/>
  <path id="Caminho_304" data-name="Caminho 304" d="M231.765,712.295l-11.349-34.823s-20.807-21.159,5.882-77.328c.585-1.243,1.2-2.5,1.838-3.774q1.675-3.365,3.585-6.9c1.928-3.423,3.882-6.962,6.089-10.62l2.018.361,1.91.333,6.53,1.153h.009l94.569,16.664s-1.738,7.764-2.675,16.1c-.748,6.837-.991,13.755.775,16.682,3.819,6.539-1.342,24.212-1.342,24.212s.288,1.712.775,4.738v.01c.477,2.945,1.144,7.124,1.9,12.186q.054.513.135,1.027c1.2,8.2,2.63,18.546,3.909,29.67.4,3.378.775,6.828,1.135,10.314Z" transform="translate(-186.072 -213.284)" fill="#2f2e41"/>
  <path id="Caminho_305" data-name="Caminho 305" d="M203.493,364.018a20.432,20.432,0,0,1,14.719-12.968,45.865,45.865,0,0,1,15.261-1.668c15.06.593,11.263-33.147,26.176-30.962,0,0,14.036-5.009,25.019,4.17,9.977,8.339,16.855,31.018,19.415,29.728a8.338,8.338,0,0,1,3.68,0c21.369,2.836,36.746,22.005,35.476,43.524l-1.086,18.4s7.672,11.55-3.461,31.94l-14.027,62.685s35.094,69.508,18.916,83.769-79.611-7.976-79.611-7.976-35.572-11-43.074-15.762c-15.847-10.067,4.407-33.022,16.929-31.94a7.3,7.3,0,0,0-2.293-7.3c-3.461-2.21.417-7.214.709-7.673-.334.333-2.961,3.086-4.962-2.71s4.17-13.093,4.17-13.093l-17.43-37.528L204.3,439.006l-1.668-3.419,2.861-18.447-.268-.554a59.071,59.071,0,0,1-3.8-40.807C202.742,370.771,203.694,366.207,203.493,364.018Z" transform="translate(-184.754 -187.299)" fill="#e6e6e6"/>
  <path id="Caminho_306" data-name="Caminho 306" d="M361.644,725.863h-6.017c1.666-3.576,3.315-7.044,4.882-10.314C360.905,718.928,361.284,722.378,361.644,725.863Z" transform="translate(-200.259 -226.853)" fill="#2f2e41"/>
  <path id="Caminho_307" data-name="Caminho 307" d="M473.573,481.516a14.616,14.616,0,0,0-1.4,2.214l-80.463-44.188-60.235-64.788A21.985,21.985,0,0,0,297.337,402.3h0a173.45,173.45,0,0,0,37.228,38.8l47.376,36.051,95.667,25.783a14.575,14.575,0,1,0-4.036-21.423Z" transform="translate(-194.081 -192.329)" fill="#816a6a"/>
  <path id="Caminho_308" data-name="Caminho 308" d="M363.757,463.262,387.643,435.4l1.33-1.558-48.927-66.3a33.732,33.732,0,0,0-6.862-4.137l-.006-.006a34.573,34.573,0,0,0-35.471,58.813l14.279,8.954,51.556,32.346Z" transform="translate(-193.179 -191.59)" fill="#e6e6e6"/>
  <path id="Caminho_309" data-name="Caminho 309" d="M315.4,277.4a46.023,46.023,0,1,1,2.339-39.208c.211.527.4,1.053.59,1.6A45.96,45.96,0,0,1,315.4,277.4Z" transform="translate(-187.69 -176.603)" fill="#816a6a"/>
  <path id="Caminho_310" data-name="Caminho 310" d="M325.817,238.883c-1.98-5.541-1.117-2.655-3.118-8.175,1.306,4.888-.758,7.627-.569,8.175h-54.8V207.027c16.054-6.363,31.75-11.777,41.231,0a31.856,31.856,0,0,1,31.855,31.854Z" transform="translate(-191.495 -175.688)" fill="#2f2e41"/>
  <path id="Caminho_311" data-name="Caminho 311" d="M301.35,327.065c-.042-.59-.105-1.2-.19-1.791a62.046,62.046,0,0,0-3.561-12.641c-1.58-4.445-3.181-8.912-4.782-13.357a38.242,38.242,0,0,1-1.791,24.271c-9.249-7.205-3.413-23.681-15.506-23.681-29.074,0-58.991-23.575-58.991-52.671,0-29.074,12.472-50.817,41.547-50.817,29.1,0,52.692,13.315,53.261,42.389C275.52,247.2,308.113,324.116,301.35,327.065Z" transform="translate(-186.453 -175.32)" fill="#2f2e41"/>
  <circle id="Elipse_59" data-name="Elipse 59" cx="33.709" cy="33.709" r="33.709" transform="translate(0 0)" fill="#2f2e41"/>
</svg>
